#!OML:ASF H:\GeneralSubjects\Female5\Project 1\Capture day 1\Session 1\Female5.ASF
:FULLY-SPECIFIED
:DEGREES
179
root 7.50671 15.4626 -6.98432 -266.947 83.9574 -276.806
lowerback 7.86021 -3.28813 -8.2038
upperback -9.25948 -4.81962 5.48862
thorax -13.5896 -0.97413 11.7679
lowerneck -13.1285 -12.0916 -12.354
upperneck 34.5033 -13.6521 -0.0573428
head 15.178 -7.12637 -0.25038
rclavicle -6.1822e-014 3.97569e-014
rhumerus -64.4672 19.445 -69.2452
rradius 19.8305
rwrist -2.23093
rhand -12.3333 -24.2828
rfingers 7.12502
rthumb 13.7358 -53.8095
lclavicle -6.1822e-014 3.97569e-014
lhumerus -28.2274 6.98203 71.1948
lradius 51.0455
lwrist -3.78327
lhand -28.4898 38.7061
lfingers 7.12502
lthumb -1.85898 68.6778
rfemur -28.1855 17.4731 17.5723
rtibia -1.58159
rfoot -35.1484 -34.6221
rtoes -1.81379
lfemur 12.8312 -13.7755 -42.0117
ltibia 3.72712
lfoot -19.206 5.37294
ltoes -64.2584
180
root 7.86901 15.4174 -6.9361 -268.989 84.2252 -278.937
lowerback 7.53227 -3.48772 -7.61233
upperback -9.6702 -4.94456 5.61942
thorax -13.8673 -1.03625 11.5957
lowerneck -11.8848 -13.2933 -14.0067
upperneck 32.8652 -15.0898 -0.379495
head 14.4204 -8.0356 -0.294384
rclavicle -3.27995e-014 1.59028e-014
rhumerus -63.1916 21.2805 -70.5783
rradius 21.7883
rwrist -4.98346
rhand -14.7007 -23.9947
rfingers 7.12502
rthumb 11.4534 -53.6619
lclavicle -3.27995e-014 1.59028e-014
lhumerus -28.9385 6.27667 71.6046
lradius 52.1627
lwrist -4.00056
lhand -27.7099 37.9796
lfingers 7.12502
lthumb -1.10572 67.9565
rfemur -27.7031 18.0832 18.1027
rtibia -1.18633
rfoot -33.6228 -36.555
rtoes 0.491755
lfemur 13.1665 -12.8694 -41.299
ltibia 5.46428
lfoot -18.8359 4.04807
ltoes -64.6308
181
root 8.22483 15.3911 -6.88594 -274.705 84.8078 -284.881
lowerback 7.28415 -3.61798 -6.59574
upperback -10.1582 -4.89943 5.81431
thorax -14.3585 -1.0359 11.2461
lowerneck -10.8971 -14.4448 -15.9667
upperneck 32.0278 -16.5896 -0.0917072
head 14.2337 -8.89342 -0.128678
rclavicle 1.19271e-014 3.18055e-015
rhumerus -61.8199 23.2352 -71.8565
rradius 23.7927
rwrist -7.65999
rhand -16.8461 -23.6464
rfingers 7.12502
rthumb 9.38387 -53.4175
lclavicle 1.19271e-014 3.18055e-015
lhumerus -29.9767 5.67386 71.9851
lradius 53.1265
lwrist -4.70398
lhand -27.655 36.4807
lfingers 7.12502
lthumb -1.05271 66.4578
rfemur -28.129 18.8921 18.7398
rtibia 0.50768
rfoot -32.1478 -38.0104
rtoes 3.7505
lfemur 13.1772 -12.13 -40.143
ltibia 7.49657
lfoot -18.2354 3.60792
ltoes -65.0949
182
root 8.59011 15.3823 -6.83468 -286.066 85.6144 -296.443
lowerback 6.92227 -3.7243 -5.1953
upperback -10.5638 -4.74177 6.1064
thorax -14.7245 -1.03649 10.7513
lowerneck -9.63097 -15.4156 -17.3638
upperneck 30.8755 -17.9159 -0.17091
head 13.7607 -9.66137 -0.108956
rclavicle -3.22031e-014 3.18055e-014
rhumerus -60.2655 25.0277 -72.76
rradius 25.9599
rwrist -9.64554
rhand -18.4456 -23.6782
rfingers 7.12502
rthumb 7.84026 -53.5129
lclavicle -3.22031e-014 3.18055e-014
lhumerus -31.3773 5.27864 72.2332
lradius 54.006
lwrist -5.89265
lhand -27.7819 34.9777
lfingers 7.12502
lthumb -1.17529 64.9542
rfemur -28.5248 14.3815 22.6126
rtibia 3.87395
rfoot -25.7507 -33.916
rtoes 6.29192
lfemur 13.0712 -10.9544 -38.4016
ltibia 9.74795
lfoot -16.9112 3.76384
ltoes -65.5316
183
root 8.95218 15.4009 -6.80503 -303.597 86.1114 -314.014
lowerback 6.20505 -3.87096 -3.65593
upperback -10.5293 -4.64158 6.42942
thorax -14.3197 -1.16434 10.1306
lowerneck -9.1272 -16.322 -18.1459
upperneck 30.0452 -19.0911 -0.49665
head 13.4812 -10.3081 -0.30022
rclavicle 8.22969e-014 -1.01778e-013
rhumerus -57.8637 26.9378 -73.4229
rradius 28.2579
rwrist -11.0832
rhand -19.7377 -23.9423
rfingers 7.12502
rthumb 6.59308 -53.8196
lclavicle 8.22969e-014 -1.01778e-013
lhumerus -32.5052 5.28787 72.3452
lradius 54.5683
lwrist -7.00317
lhand -28.3601 33.8325
lfingers 7.12502
lthumb -1.73369 63.8052
rfemur -29.0334 10.425 26.1554
rtibia 7.71205
rfoot -20.7463 -29.3181
rtoes 8.36442
lfemur 12.6165 -8.70097 -36.2754
ltibia 12.6184
lfoot -15.3095 2.99314
ltoes -66.1476
184
root 9.30314 15.4354 -6.76736 -325.56 85.8827 -335.884
lowerback 6.11618 -3.91068 -2.13654
upperback -10.7017 -4.42402 6.64775
thorax -14.6052 -1.18001 9.48711
lowerneck -8.3334 -16.8991 -19.2979
upperneck 29.5331 -20.0212 -0.0461993
head 13.4091 -10.7906 -0.110608
rclavicle 3.77691e-015 1.59028e-014
rhumerus -56.1212 29.1453 -74.5757
rradius 30.7692
rwrist -12.1393
rhand -20.736 -24.3069
rfingers 7.12502
rthumb 5.62923 -54.2122
lclavicle 3.77691e-015 1.59028e-014
lhumerus -34.2893 5.01003 72.3539
lradius 54.6611
lwrist -7.71024
lhand -29.4853 32.6767
lfingers 7.12502
lthumb -2.82039 62.6378
rfemur -29.0182 8.81223 28.7969
rtibia 10.7532
rfoot -19.0218 -25.9433
rtoes 9.33816
lfemur 11.6882 -5.43748 -33.6129
ltibia 16.1599
lfoot -11.9396 2.47993
ltoes -66.7907
185
root 9.64704 15.4774 -6.72412 -337.172 84.8673 -347.284
lowerback 5.84898 -3.90468 -1.40609
upperback -10.6116 -4.30155 6.77527
thorax -14.3887 -1.20944 9.15574
lowerneck -7.46817 -17.2191 -19.8322
upperneck 28.7211 -20.6982 0.358727
head 13.0905 -11.1114 0.0723891
rclavicle -5.08889e-014 3.97569e-014
rhumerus -53.8428 31.3661 -75.5104
rradius 33.3006
rwrist -12.828
rhand -21.2494 -24.9297
rfingers 7.12502
rthumb 5.13357 -54.8475
lclavicle -5.08889e-014 3.97569e-014
lhumerus -35.6383 5.01734 72.5031
lradius 54.247
lwrist -8.21131
lhand -30.4085 32.7704
lfingers 7.12502
lthumb -3.71199 62.7178
rfemur -28.2833 8.34514 30.3628
rtibia 12.6126
rfoot -18.448 -24.0137
rtoes 7.08548
lfemur 10.3891 -1.66219 -31.2783
ltibia 20.4411
lfoot -6.70072 2.69529
ltoes -66.8327
186
root 9.98549 15.5168 -6.66975 -341.343 83.745 -351.098
lowerback 5.78616 -3.87006 -1.23685
upperback -10.5575 -4.23776 6.7869
thorax -14.3047 -1.2056 9.04936
lowerneck -6.80892 -17.3382 -20.3239
upperneck 28.398 -21.1141 0.954792
head 13.0162 -11.2876 0.326317
rclavicle -3.02153e-014 9.06458e-014
rhumerus -51.5366 33.2494 -76.2397
rradius 35.6646
rwrist -12.928
rhand -21.5237 -25.2562
rfingers 7.12502
rthumb 4.86866 -55.1802
lclavicle -3.02153e-014 9.06458e-014
lhumerus -37.0295 4.92673 72.8145
lradius 53.6315
lwrist -8.8186
lhand -30.4922 34.4815
lfingers 7.12502
lthumb -3.79278 64.4275
rfemur -26.6894 8.35157 31.2584
rtibia 13.1224
rfoot -18.413 -22.5394
rtoes 6.47133
lfemur 8.91608 1.76773 -29.3562
ltibia 25.1745
lfoot -0.736099 4.06854
ltoes -66.5835
187
root 10.3199 15.5529 -6.59911 -345.228 82.8185 -354.513
lowerback 5.78779 -3.84383 -1.23951
upperback -10.4219 -4.20334 6.88312
thorax -14.1413 -1.19687 9.14155
lowerneck -6.56006 -17.4448 -20.4793
upperneck 28.4401 -21.3791 1.17553
head 13.0655 -11.4 0.38634
rclavicle 5.1684e-015 2.54444e-014
rhumerus -48.9163 35.0409 -76.5985
rradius 37.7792
rwrist -12.1462
rhand -21.314 -25.0565
rfingers 7.12502
rthumb 5.07116 -54.9758
lclavicle 5.1684e-015 2.54444e-014
lhumerus -38.2237 5.02965 73.2304
lradius 52.6382
lwrist -9.77498
lhand -29.7036 35.2029
lfingers 7.12502
lthumb -3.03119 65.1611
rfemur -24.3145 8.53282 32.1804
rtibia 12.4504
rfoot -18.7446 -21.3001
rtoes 7.6631
lfemur 7.47968 4.29535 -27.4569
ltibia 29.923
lfoot 4.62443 5.94472
ltoes -66.3322
188
root 10.6497 15.585 -6.51943 -350.102 82.0424 -358.92
lowerback 5.79554 -3.82474 -1.15688
upperback -10.22 -4.15168 7.10836
thorax -13.9044 -1.18358 9.32446
lowerneck -6.54756 -17.5167 -20.5432
upperneck 28.5719 -21.5265 1.28703
head 13.1585 -11.4587 0.395457
rclavicle -3.93594e-014 7.31528e-014
rhumerus -46.2229 37.1661 -76.7112
rradius 39.9604
rwrist -11.2003
rhand -20.8975 -24.4604
rfingers 7.12502
rthumb 5.47336 -54.3698
lclavicle -3.93594e-014 7.31528e-014
lhumerus -39.1566 5.36435 73.7305
lradius 51.3789
lwrist -10.8177
lhand -28.4647 34.7176
lfingers 7.12502
lthumb -1.83473 64.6895
rfemur -21.6614 8.68541 33.3477
rtibia 11.2692
rfoot -19.0618 -20.4452
rtoes 7.58404
lfemur 6.0141 6.03688 -25.5007
ltibia 34.73
lfoot 7.47942 8.87402
ltoes -62.611
189
root 10.9726 15.6092 -6.44602 -354.954 81.4614 -363.33
lowerback 5.82348 -3.85022 -0.799585
upperback -10.0252 -4.12361 7.31599
thorax -13.7059 -1.20862 9.33573
lowerneck -6.42436 -17.5216 -20.6759
upperneck 28.5596 -21.639 1.58476
head 13.2001 -11.4907 0.503226
rclavicle -3.4191e-014 5.40694e-014
rhumerus -43.771 39.3011 -76.747
rradius 42.4013
rwrist -10.8914
rhand -21.0285 -23.6734
rfingers 7.12502
rthumb 5.34684 -53.586
lclavicle -3.4191e-014 5.40694e-014
lhumerus -39.9516 5.68563 74.1829
lradius 50.0951
lwrist -11.8571
lhand -27.3375 33.9672
lfingers 7.12502
lthumb -0.746044 63.9456
rfemur -19.0364 8.33411 34.6175
rtibia 10.0172
rfoot -19.0614 -19.6237
rtoes 6.48911
lfemur 4.30771 7.31068 -23.6504
ltibia 39.1396
lfoot 11.2112 10.4932
ltoes -62.2873
190
root 11.2856 15.6281 -6.38205 -359.428 81.054 -367.393
lowerback 6.10306 -3.90274 -0.163785
upperback -9.93776 -4.08989 7.42671
thorax -13.8228 -1.24474 9.11673
lowerneck -6.53332 -17.5927 -20.6196
upperneck 28.794 -21.7299 1.51906
head 13.3139 -11.5304 0.432397
rclavicle -4.25399e-014 -9.54166e-015
rhumerus -41.4454 41.0443 -76.6795
rradius 44.7082
rwrist -10.7905
rhand -21.588 -22.679
rfingers 7.12502
rthumb 4.8066 -52.6044
lclavicle -4.25399e-014 -9.54166e-015
lhumerus -40.7515 5.97688 74.5435
lradius 48.7982
lwrist -12.3694
lhand -26.3121 33.1713
lfingers 7.12502
lthumb 0.244328 63.1509
rfemur -16.5778 7.38322 35.8295
rtibia 8.86866
rfoot -18.8259 -18.7682
rtoes 5.90537
lfemur 2.3589 8.45298 -21.8962
ltibia 43.2266
lfoot 14.3365 10.8567
ltoes -63.6713
